<svg xmlns="http://www.w3.org/2000/svg" width="400" height="400"><path fill="#BAB0FF" d="m211.06640625 26.76171875 2.26625061-.02967834C249.04620464 26.36084957 293.35917491 32.32183705 321 58c1.7951337 3.5902674 1.68820749 7.09714685 1 11-1.27397156 1.91529846-1.27397156 1.91529846-2.98706055 3.75219727l-1.93319702 2.09036254L315 77l-2.04629517 2.12545776c-2.20327019 2.25564492-4.42818577 4.48772829-6.66073608 6.71438599l-2.44425964 2.44715881c-1.69044797 1.69112389-3.38214106 3.381004-5.07502747 5.06968689-2.59955644 2.59415757-5.19367839 5.1936648-7.78735351 7.79370118-1.64746555 1.64680548-3.29524087 3.29330113-4.94335938 4.93945312l-2.35469055 2.36082458-2.17582703 2.16627503-1.91438293 1.91197205c-3.18367332 2.93069636-5.99910161 2.76075816-10.15080261 2.71180725-3.93417526-.38698093-7.150951-1.88608747-10.69726563-3.55322266-23.69163312-10.43037728-49.0557348-9.72049934-73.1953125-1.12109375-23.91606376 9.64526967-42.9332972 28.00125861-53.08984375 51.70703125C122.46602714 186.98397076 123.06387195 212.19224153 132 237c.74679605 1.6568787 1.51341152 3.30519826 2.3125 4.9375 2.04191521 4.43821241 2.82021298 8.25234243 1.6875 13.0625-1.2922821 1.87257385-1.2922821 1.87257385-2.9987793 3.72485352l-1.92807007 2.10232544c-3.54761146 3.71816921-7.14149126 7.38357815-10.78018188 11.01266479l-2.44425964 2.44715881c-1.69044797 1.69112389-3.38214106 3.381004-5.07502747 5.06968689-2.59955644 2.59415757-5.19367839 5.1936648-7.78735351 7.79370118-1.64746555 1.64680548-3.29524087 3.29330113-4.94335938 4.93945312l-2.35469055 2.36082458-2.17582703 2.16627503-1.91438293 1.91197205c-3.19424367 2.94042678-6.17662148 2.88203564-10.35978699 2.79530334C81 301 81 301 78.375 299.1875c-18.46986399-24.78850167-30.38489423-57.31952957-30.578125-88.39453125l-.02139282-2.29911804C47.54821112 176.90095411 47.54821112 176.90095411 51 163l.5859375-2.45996094c11.17787615-45.83274217 39.48691849-84.7520169 79.60571289-109.45849609 23.86519064-14.28010371 51.85814931-24.01435384 79.87475586-24.31982422Z"/><path fill="#6C47FF" d="M180.06640625 287.26953125 183.4375 288.8125C204.20426639 298.15176772 229.42673028 299.54508167 251 292c3.95647292-1.51369454 7.89869652-3.06521877 11.76342773-4.80102539 4.03926804-1.72991618 7.69111489-2.94076484 12.15429688-2.06542969C279.82240008 287.17442817 283.3144272 291.29543817 287 295c1.28400769 1.26256236 2.56925307 2.52386675 3.85546875 3.78417969 3.6500388 3.58929669 7.27354693 7.20418481 10.88818359 10.82910156 2.27570958 2.28112676 4.55678987 4.55678673 6.83837891 6.83203125 1.45214414 1.45280399 2.90397857 2.90591764 4.35546875 4.359375l2.06103516 2.05490112 1.90380859 1.9133606 1.67163086 1.67404175c2.67693193 2.91530536 3.74927325 4.97421566 3.86352539 8.86550903l.12109375 2.23828125c-1.20398641 5.27901735-5.14274384 8.3588796-9.5 11.16015625-1.53072557.90453484-3.07174116 1.79181792-4.62109375 2.6640625l-2.51708984 1.43212891C286.75596216 363.42609456 265.64735417 369.96490704 244 373l-2.05395508.29003906c-39.60430209 5.01172482-85.44447677-4.13359458-117.80151367-28.43457031-3.16645716-2.73964873-3.98124237-4.60358736-4.51953125-8.73046875.92667462-7.72228853 8.14432457-13.18510668 13.375-18.390625l2.64453125-2.65032959c1.83998982-1.8413471 3.68249294-3.68018576 5.52734375-5.5166626 1.88910999-1.8819345 3.7753121-3.76620659 5.65625-5.65625 2.71863132-2.73097147 5.44407937-5.45494308 8.171875-8.17675781l2.55078125-2.56304932 2.38671875-2.36761474 2.08984375-2.08502198c5.68511839-4.95319458 11.35339852-4.21710777 18.0390625-1.44915771ZM251.6640625 154.3203125c12.86735047 9.25244264 20.84919788 20.99564648 23.91796875 36.6484375C277.57172963 205.3987121 274.67831208 218.63775027 267 231c-9.31872904 12.26702749-21.27432002 20.84588609-36.60546875 23.71875-16.45327117 1.93252125-30.87208053-1.91889142-44.1875-11.7890625C176.37194409 234.62714796 168.94098072 222.8794048 167 210c-1.25318336-17.52281044 1.55995491-32.61755103 13.3125-46.1875 18.58189995-19.77579468 48.18043048-24.56467144 71.3515625-9.4921875Z"/></svg>